HIERARCHY
ROOT Hips
{
 OFFSET 0.000000 0.000000 0.000000
 CHANNELS 6 Xposition Yposition Zposition Yrotation Xrotation Zrotation
 JOINT Chest
 {
  OFFSET 0.000000 9.585900 0.002600
  CHANNELS 3 Yrotation Xrotation Zrotation
  JOINT Chest2
  {
   OFFSET 0.000000 9.601200 -0.005300
   CHANNELS 3 Yrotation Xrotation Zrotation
   JOINT Chest3
   {
    OFFSET 0.000000 9.561800 0.000000
    CHANNELS 3 Yrotation Xrotation Zrotation
    JOINT Chest4
    {
     OFFSET 0.000000 9.552100 0.000000
     CHANNELS 3 Yrotation Xrotation Zrotation
     JOINT Neck
     {
      OFFSET 0.000000 14.453000 0.000000
      CHANNELS 3 Yrotation Xrotation Zrotation
      JOINT Head
      {
       OFFSET 0.000000 8.936500 -0.011300
       CHANNELS 3 Yrotation Xrotation Zrotation
       End Site
       {
        OFFSET 0.000000 17.073600 -0.006000
       }
      }
     }
     JOINT RightCollar
     {
      OFFSET -2.921100 9.558500 0.000000
      CHANNELS 3 Yrotation Xrotation Zrotation
      JOINT RightShoulder
      {
       OFFSET -13.519700 0.000000 0.000000
       CHANNELS 3 Yrotation Xrotation Zrotation
       JOINT RightElbow
       {
        OFFSET 0.000000 -29.696600 0.000000
        CHANNELS 3 Yrotation Xrotation Zrotation
        JOINT RightWrist
        {
         OFFSET 0.000000 -24.004700 0.000000
         CHANNELS 3 Yrotation Xrotation Zrotation
         End Site
         {
          OFFSET 0.000000 -17.728500 0.000000
         }
        }
       }
      }
     }
     JOINT LeftCollar
     {
      OFFSET 2.921100 9.558500 0.000000
      CHANNELS 3 Yrotation Xrotation Zrotation
      JOINT LeftShoulder
      {
       OFFSET 13.519700 0.000000 0.000000
       CHANNELS 3 Yrotation Xrotation Zrotation
       JOINT LeftElbow
       {
        OFFSET 0.000000 -29.696600 0.000000
        CHANNELS 3 Yrotation Xrotation Zrotation
        JOINT LeftWrist
        {
         OFFSET 0.000000 -24.004700 0.000000
         CHANNELS 3 Yrotation Xrotation Zrotation
         End Site
         {
          OFFSET 0.000000 -17.728500 0.000000
         }
        }
       }
      }
     }
    }
   }
  }
 }
 JOINT RightHip
 {
  OFFSET -7.771700 -0.012900 -0.001300
  CHANNELS 3 Yrotation Xrotation Zrotation
  JOINT RightKnee
  {
   OFFSET 0.000000 -40.869800 0.001200
   CHANNELS 3 Yrotation Xrotation Zrotation
   JOINT RightAnkle
   {
    OFFSET 0.000000 -39.717900 0.002100
    CHANNELS 3 Yrotation Xrotation Zrotation
    JOINT RightToe
    {
     OFFSET 0.000000 -4.965400 11.033500
     CHANNELS 3 Yrotation Xrotation Zrotation
     End Site
     {
      OFFSET 0.000000 -1.423100 5.872300
     }
    }
   }
  }
 }
 JOINT LeftHip
 {
  OFFSET 7.771700 -0.012900 -0.001300
  CHANNELS 3 Yrotation Xrotation Zrotation
  JOINT LeftKnee
  {
   OFFSET 0.000000 -40.869800 0.001200
   CHANNELS 3 Yrotation Xrotation Zrotation
   JOINT LeftAnkle
   {
    OFFSET 0.000000 -39.717900 0.002100
    CHANNELS 3 Yrotation Xrotation Zrotation
    JOINT LeftToe
    {
     OFFSET 0.000000 -4.965400 11.033500
     CHANNELS 3 Yrotation Xrotation Zrotation
     End Site
     {
      OFFSET 0.000000 -1.423100 5.872300
     }
    }
   }
  }
 }
}
MOTION
Frames: 5
Frame Time: 0.008333
0.000000 85.388000 0.000000 0.000000 -5.767877 0.000000 0.000000 11.653817 0.000000 0.000000 -5.885947 0.000000 0.000000 -0.000000 0.000000 0.000000 -0.000000 0.000000 0.000000 12.528835 0.000000 0.000000 0.711642 0.000000 0.000000 -0.000000 0.000000 0.000000 0.000000 -90.000000 0.000000 -2.309062 0.000000 0.000000 2.309062 0.000000 0.000000 -0.000000 0.000000 0.000000 -0.000000 90.000000 0.000000 -2.309062 0.000000 0.000000 2.309062 0.000000 0.000000 8.520406 0.000000 0.000000 1.905762 0.000000 -0.000000 -4.658285 0.000000 0.000000 -0.000000 0.000000 0.000000 8.520406 0.000000 0.000000 1.905762 0.000000 -0.000000 -4.658285 0.000000 0.000000 -0.000000 0.000000
7.187899 52.101265 39.337699 171.726758 -38.488172 -2.008674 4.652100 25.605064 2.767780 0.663025 4.166818 0.510705 1.073700 6.710427 0.802734 3.832421 20.879155 3.123596 0.765658 15.802585 0.286081 1.327852 -6.521393 0.301599 -2.378250 -2.228819 -3.138526 8.855940 -13.320007 -3.982628 166.546160 -43.438098 -151.322666 0.774865 -23.417656 -22.542160 -7.855582 -2.252373 0.052000 -10.338520 -17.291012 4.284986 -178.341518 -50.547299 163.302988 -7.445684 -38.360186 23.126187 -4.003221 -42.907640 4.683794 156.587017 87.357785 160.554969 -1.346648 -10.569550 -2.120693 0.052347 -0.215181 0.015291 1.874290 -39.289152 5.641426 69.846867 83.397226 59.359189 -6.307346 -11.714025 10.644545 0.426162 1.523111 0.191504
7.187900 52.098650 39.333634 171.709970 -38.476011 -2.005772 4.670652 25.616207 2.763302 0.662018 4.172089 0.510083 1.076736 6.696564 0.806925 3.836484 20.901678 3.107669 0.766880 15.794306 0.306654 1.307657 -6.442769 0.338234 -2.377355 -2.207496 -3.117997 8.926571 -13.309095 -3.971015 166.448244 -43.385056 -151.276719 0.786252 -23.435431 -22.562195 -7.879136 -2.207566 0.046323 -10.368681 -17.331495 4.266539 -178.498844 -50.551624 163.419033 -7.432604 -38.384317 23.190284 -4.013189 -42.920766 4.685011 156.251069 87.346087 160.230696 -1.343545 -10.574972 -2.140695 0.050870 -0.214345 0.013834 1.883678 -39.305214 5.643948 69.905315 83.408953 59.422065 -6.295738 -11.720101 10.650067 0.418632 1.516546 0.185526
7.184575 52.094027 39.330536 171.706152 -38.445627 -1.993744 4.671307 25.608392 2.738739 0.661745 4.176842 0.507337 1.078072 6.685062 0.813128 3.840017 20.923362 3.089303 0.768987 15.788004 0.330653 1.300914 -6.418158 0.359108 -2.377162 -2.224120 -3.091334 8.981225 -13.276729 -3.957430 166.387843 -43.355096 -151.244619 0.789362 -23.459452 -22.571779 -7.890855 -2.201596 0.061749 -10.413133 -17.337783 4.226103 -178.669602 -50.574273 163.550263 -7.413225 -38.390163 23.249485 -4.026096 -42.955763 4.663189 155.833342 87.324320 159.821494 -1.338453 -10.582751 -2.164284 0.047169 -0.213816 0.015493 1.898727 -39.339897 5.614761 69.980964 83.405213 59.505449 -6.290868 -11.720798 10.656812 0.408711 1.512105 0.177107
7.187429 52.094144 39.322054 171.676830 -38.459860 -1.998676 4.709351 25.634793 2.756603 0.665707 4.186220 0.503670 1.080286 6.687925 0.809950 3.846339 20.953678 3.058490 0.764209 15.838196 0.370671 1.289355 -6.382825 0.414968 -2.386375 -2.136563 -3.054355 9.026104 -13.375019 -3.948910 166.395119 -43.383335 -151.253677 0.761197 -23.492811 -22.497925 -7.923959 -2.154125 0.076285 -10.460919 -17.398033 4.230382 -178.834497 -50.607793 163.683475 -7.392483 -38.373557 23.302277 -4.029618 -42.936363 4.678334 155.497895 87.315319 159.507406 -1.336547 -10.590189 -2.191498 0.051270 -0.212999 0.016765 1.900482 -39.332634 5.625597 70.133520 83.399327 59.667108 -6.232530 -11.701916 10.666499 0.358753 1.473729 0.149827
